<svg class="logo" viewBox="0 0 1024 1024" version="1.1"
     xmlns="http://www.w3.org/2000/svg" width="32"
     height="32">
    <path
        d="M1000.591655 510.206786l-0.69685-147.378721c0.69685-8.802588 2.913079-49.951494-12.809988-88.063685-17.984254-43.623644-77.590496-78.94026-84.66935-83.069251L585.737895 15.548344l-2.164119-1.086146c-2.93658-1.315024-29.907342-12.929535-71.695878-12.929535-39.731704 0-66.705531 11.614512-69.642111 12.929535L123.063041 191.924006c-6.72532 3.875591-66.307039 39.222861-84.338295 82.840374-15.723067 38.112192-13.506838 79.284598-12.81101 88.042228 0 0-0.604891 114.3049-0.604891 134.108935 0 19.801991 5.496125 30.260876 17.888207 40.695238 13.458815 11.341698 47.909988 12.543305 52.406818 12.543305l44.045637 0 87.252396 0c19.961388 136.490691 140.45109 241.863238 286.026379 241.863238 109.58941 0 204.990459-59.752355 253.994767-147.587163 1.07082-1.904588 10.343424-23.862523-10.780744-34.50124-24.22321-12.203054-42.673393 15.94377-42.673393 15.94377-40.622692 66.762751-115.224497 111.697331-200.541652 111.697331-114.714632 0-210.116702-81.075769-229.548811-187.416958l473.857155 0c0 0 22.198053 2.358256 34.936516-10.409839 10.788918-10.799135 10.016456-15.861007 10.016456-29.425064 0-155.340389-129.785807-281.716533-289.262339-281.716533-154.45451 0-280.622213 118.572852-288.521552 267.08983l-101.853555 0c-13.11652 0-22.293078 1.495878-32.051025-6.285957-7.987212-6.376895-9.132621-13.11039-9.132621-27.812704 0-14.720706 0.306532-102.601494 0.306532-102.601494-0.023501-0.340251-3.144-34.659615 8.922136-63.923239 8.292722-20.053348 41.804885-45.190024 60.576927-56.099511L466.362949 63.619772c4.031922-1.520401 21.617685-7.649004 47.588129-7.649004 24.294734 0 41.741535 6.198085 45.442402 7.624482l314.909902 175.167924c16.141995 9.323693 52.26377 35.344204 60.931483 56.304888 12.089637 29.331061 8.91907 63.650425 8.898635 63.923239l-0.14407 1.428441 0.676415 149.786022-0.676415 148.584415 0.14407 2.85586c0.043936 0.342294 3.167501 34.689247-8.898635 63.924261-8.317245 20.052326-41.785471 45.213525-60.585102 56.078054L559.397568 957.067635c-3.728455 1.403918-21.150734 7.622438-45.398466 7.622438l-2.189663 0c-24.271233 0-41.693512-6.21852-45.394379-7.622438L151.549094 781.877231c-16.140973-9.302236-52.283183-35.367705-60.950897-56.30591-12.114159-29.308582-8.945636-63.651447-8.922136-63.924261l0.163484-1.426397-0.071524-14.498981c0 0-5.448102-22.681352-29.834796-21.618706-24.390781 1.066733-26.069557 21.618706-26.069557 21.618706l0.051089 12.095767c-0.699916 8.775-2.913079 49.968864 12.81101 88.058576 18.031256 43.625687 77.612975 78.988284 84.712265 83.044729l316.657137 176.170285 2.140618 1.08819c2.937602 1.293567 29.882819 12.929535 70.480988 12.929535l1.282327 0c39.715356 0 66.638094-11.636991 69.594088-12.929535l319.171724-177.46283c6.729407-3.877635 66.335649-39.215708 84.318881-82.841395 15.723067-38.08256 13.506838-79.254967 12.809988-88.058576L1000.591655 510.206786 1000.591655 510.206786zM512.928282 283.047906c115.176474 0 210.952513 81.799185 229.731708 188.889335 1.373265 7.779792 3.302375 13.227894-3.243113 19.59968-6.571032 6.374852-20.029847 4.154535-20.029847 4.154535l-439.056535 0C288.13481 377.20852 389.316038 283.047906 512.928282 283.047906L512.928282 283.047906zM512.928282 283.047906"
        fill="#ffffff"></path>
</svg>
