<svg viewBox="0 0 1024 1024" version="1.1" xmlns="http://www.w3.org/2000/svg">
  <path
    d="M447.04121137 638.52843243l-0.46487682 0.18595076-72.02491831-13.32646975a758.0591536 758.0591536 0 0 1-5.48554656-154.02918951c6.13637418-87.92370411 27.14880696-172.93418126 58.3575394-252.64506256a881.71639075 881.71639075 0 0 1 41.40502856-90.68197451c8.58472609-16.27068909 15.4029184-27.86161748 19.52482693-34.27691776l30.74385565-47.88231366 31.17773828 47.60338756c11.46696244 17.44837646 27.67566674 48.96702562 43.63643919 93.31627535 32.85129668 91.27081727 48.93603508 196.70488263 39.26659694 313.76087056a962.60495941 962.60495941 0 0 1-8.73968444 72.45880091l-77.04558803 28.48145445c8.67770144-35.54758229 15.03101696-72.83070417 18.62606564-111.7873826 9.6694381-104.256378-6.35331733-197.69662108-38.89469549-278.1203111-2.4793425-6.10538178-4.95868683-11.96282985-7.5000123-17.63432903a780.24927373 780.24927373 0 0 0-24.39053831 50.51661625c-31.61162454 71.80797514-52.87199103 148.29570921-59.03935762 226.85989375-4.33884982 55.2273676-0.12396775 111.44647176 10.84712729 167.20070089z"
    fill="#ffffff"></path>
  <path
    d="M525.5434111 855.25401124a501.44714267 501.44714267 0 0 0 117.64483069-90.92990819 445.16605367 445.16605367 0 0 0 58.04762095-75.40302207c13.202502-21.63226795 24.63847205-44.25627434 34.40088553-67.74805143a566.62287443 566.62287443 0 0 0 39.91742274-160.22754664 644.62920676 644.62920676 0 0 0-14.00828795 10.22729031c-54.73149834 41.06411947-108.16134336 93.96710288-156.04365698 159.91762993-12.61365742 17.35540108-23.73971079 35.08270548-33.47113187 53.15091713a428.39949538 428.39949538 0 0 0-51.04347609 173.52302586l4.55579298-2.5103349z m-80.2067487 69.51458157c-2.82025337-17.88226271-4.18389146-47.51041213-0.43388445-85.90923843a508.14136908 508.14136908 0 0 1 59.31828369-192.67595129A547.62490732 547.62490732 0 0 1 543.30170601 584.10685081c52.74802505-72.58276865 111.69440728-130.9712987 172.34533853-176.52922816 36.88022802-27.67566674 66.57036224-45.09305268 84.76254166-53.61579575l50.54760682-23.61574303 4.15290089 56.59100746c1.23967216 16.85953368 1.17768733 45.18602799-2.51033488 81.78732992a646.14780315 646.14780315 0 0 1-45.71288962 183.31642993 572.94519935 572.94519935 0 0 1-39.94841511 78.62616922 523.76123062 523.76123062 0 0 1-68.2749112 88.76048246 578.30677821 578.30677821 0 0 1-135.83701016 105.06216383c-29.00831425 16.27068909-52.43810658 26.466987-66.91127131 31.45666621l-43.29552829 14.90704919-7.28307094-46.05379689z"
    fill="#ffffff"></path>
  <path
    d="M470.99786349 893.00200993l-10.8161349 77.82038158c-233.7400708-83.86378039-316.30219605-287.4798325-276.63270523-577.22206619l11.49795301-83.92576336 53.77075412 62.66539687a10887.72530872 10887.72530872 0 0 1 155.88869683 185.23792017c34.27691775 41.83891481 74.31831003 102.79976273 120.55805767 183.25444695l-50.91950831 58.63646554c-44.25627434-76.98360326-95.67165191-151.95274091-126.75641662-189.91768273a9046.16222905 9046.16222905 0 0 0-97.59314222-116.839043c-8.36778296 204.70076414 65.08275638 335.39313851 221.00244565 400.28994417z"
    fill="#ffffff"></path>
</svg>
