<svg class="icon" viewBox="0 0 1024 1024" version="1.1" xmlns="http://www.w3.org/2000/svg" width="100%" height="100%">
    <defs>
        <style type="text/css"></style>
    </defs>
    <path
        d="M511.714318 0.457092c282.268497 0 511.085816 228.817319 511.085816 511.085816s-228.817319 511.085816-511.085816 511.085816S0.628501 793.811405 0.628501 511.542908 229.445821 0.457092 511.714318 0.457092z m0 0"
        fill="#E5E5E5"></path>
    <path
        d="M740.88874 965.277982A511.114385 511.114385 0 0 1 246.929584 939.895101c90.547037-23.454525 178.108693-14.027006 197.96362-55.108135 46.637652-91.80404 23.325968-126.628724-42.266711-138.47026-89.161478-23.940185-113.087379-62.650151-101.860061-287.939293 22.08325-119.343823 4.685191-346.718447 279.968754-305.565896 280.825801 41.995313 196.778038 282.039951 79.162593 572.021872-60.364691 148.811963 29.71097 215.690213 80.990961 240.444593z m0 0"
        fill="#FFFFFF"></path>
</svg>
